<svg id="svg" version="1.1" xmlns="http://www.w3.org/2000/svg" xmlns:xlink="http://www.w3.org/1999/xlink" width="400" height="400" viewBox="0, 0, 400,400"><g id="svgg"><path id="path0" d="M116.392 93.359 C 113.150 94.777,111.800 97.082,111.800 101.200 C 111.800 107.002,113.414 108.613,119.834 109.221 C 128.629 110.055,128.004 106.516,127.985 155.373 C 127.967 202.509,128.232 200.373,122.327 200.971 C 116.814 201.530,115.962 201.706,114.726 202.538 C 110.276 205.537,110.760 214.401,115.500 216.716 C 117.720 217.801,165.033 217.768,167.079 216.681 C 170.073 215.090,171.684 211.196,170.865 207.532 C 169.808 202.811,168.273 201.691,162.124 201.157 C 154.711 200.513,155.000 201.307,155.000 181.600 L 155.000 166.200 157.927 166.304 C 162.811 166.477,163.627 167.232,169.703 177.200 C 185.775 203.564,192.276 210.946,203.000 215.006 C 204.540 215.589,206.211 216.230,206.714 216.431 L 207.627 216.795 207.514 254.298 C 207.378 299.126,208.144 294.829,200.155 295.586 C 194.028 296.167,192.117 297.626,191.370 302.297 C 190.805 305.830,192.968 310.292,195.770 311.375 C 196.706 311.736,207.474 311.796,240.800 311.625 L 284.600 311.400 286.443 310.316 C 289.377 308.592,290.344 306.200,291.587 297.600 C 292.162 293.619,293.445 285.584,294.029 282.308 C 295.480 274.157,285.093 268.508,278.044 273.614 C 276.105 275.019,275.661 275.827,273.979 281.008 C 269.323 295.358,269.255 295.400,250.800 295.400 C 232.894 295.400,234.330 297.355,234.496 273.200 L 234.600 258.200 249.800 258.000 C 266.636 257.778,266.491 257.801,268.569 255.076 C 271.554 251.163,270.517 245.335,266.301 242.328 C 265.008 241.406,264.905 241.399,249.800 241.200 L 234.600 241.000 234.571 222.490 L 234.542 203.980 235.466 203.748 C 237.282 203.292,258.128 203.849,259.600 204.393 C 263.787 205.940,265.777 209.737,267.572 219.600 C 268.696 225.778,269.400 227.067,272.535 228.692 C 277.843 231.443,285.843 228.952,287.042 224.176 C 287.483 222.419,286.932 195.143,286.422 193.489 C 285.871 191.701,283.975 189.430,282.241 188.480 C 281.104 187.857,278.053 187.792,245.800 187.701 C 226.440 187.647,210.222 187.515,209.761 187.409 C 207.717 186.937,189.909 160.000,191.641 160.000 C 192.584 160.000,198.820 156.811,201.773 154.818 C 228.038 137.094,221.562 103.961,190.200 95.610 C 182.082 93.448,180.871 93.390,136.600 93.061 C 123.189 92.961,117.096 93.051,116.392 93.359 M171.414 109.367 C 183.624 111.516,189.009 117.836,188.994 130.000 C 188.974 145.413,181.624 150.750,161.000 150.324 L 155.000 150.200 155.000 131.129 C 155.000 109.700,154.890 110.490,158.022 109.359 C 159.913 108.675,167.511 108.680,171.414 109.367 " stroke="none" fill="#fafbfb" fill-rule="evenodd"></path><path id="path1" d="M18.400 200.000 L 18.400 382.400 200.400 382.400 L 382.400 382.400 382.400 200.000 L 382.400 17.600 200.400 17.600 L 18.400 17.600 18.400 200.000 M337.600 200.601 L 337.600 338.401 199.500 338.301 L 61.400 338.200 61.291 201.400 C 61.231 126.160,61.279 64.195,61.398 63.700 L 61.615 62.800 199.608 62.800 L 337.600 62.800 337.600 200.601 " stroke="none" fill="#24bca4" fill-rule="evenodd"></path><path id="path2" d="M0.000 200.000 L 0.000 400.000 200.000 400.000 L 400.000 400.000 400.000 200.000 L 400.000 0.000 200.000 0.000 L 0.000 0.000 0.000 200.000 M382.400 200.000 L 382.400 382.400 200.400 382.400 L 18.400 382.400 18.400 200.000 L 18.400 17.600 200.400 17.600 L 382.400 17.600 382.400 200.000 M61.398 63.700 C 61.279 64.195,61.231 126.160,61.291 201.400 L 61.400 338.200 199.500 338.301 L 337.600 338.401 337.600 200.601 L 337.600 62.800 199.608 62.800 L 61.615 62.800 61.398 63.700 M153.400 92.801 C 187.592 93.171,189.000 93.342,199.212 98.368 C 227.215 112.152,224.375 147.426,194.276 159.672 C 193.002 160.190,192.070 160.801,192.167 161.056 C 192.802 162.722,205.794 182.146,208.736 185.829 L 209.672 187.000 244.736 187.106 C 283.331 187.223,282.259 187.154,284.810 189.704 C 287.342 192.236,287.518 193.384,287.833 209.461 C 288.108 223.472,288.106 223.529,287.215 225.369 C 284.646 230.676,275.766 232.167,270.527 228.171 C 268.616 226.714,268.085 225.418,266.783 219.046 C 263.859 204.738,263.744 204.654,246.922 204.478 L 235.244 204.356 235.322 222.478 L 235.400 240.600 250.400 240.800 C 265.258 240.998,265.414 241.009,266.904 241.935 C 271.174 244.590,272.126 251.951,268.703 255.850 C 266.600 258.244,267.031 258.184,250.600 258.400 L 235.400 258.600 235.400 275.491 L 235.400 292.383 236.509 293.491 L 237.617 294.600 249.627 294.717 C 268.622 294.902,268.617 294.904,272.814 282.464 C 273.754 279.679,274.837 276.770,275.222 276.000 C 279.151 268.140,293.513 270.422,294.676 279.091 C 294.952 281.145,291.365 303.921,290.330 306.692 C 288.296 312.137,289.273 311.997,252.954 312.014 C 236.039 312.022,216.634 312.192,209.831 312.391 C 194.912 312.828,193.751 312.536,191.558 307.800 C 188.563 301.330,192.291 295.453,199.710 294.951 C 203.667 294.683,205.474 294.182,205.994 293.211 C 207.036 291.264,207.231 283.953,207.117 251.068 L 207.000 217.136 204.279 216.185 C 192.667 212.124,184.929 203.632,169.375 177.882 C 163.185 167.635,162.281 166.807,157.259 166.802 L 155.118 166.800 155.305 181.300 C 155.552 200.392,155.389 199.925,161.960 200.434 C 169.743 201.037,173.419 205.875,171.201 212.596 C 169.468 217.848,167.400 218.443,152.200 218.068 C 145.600 217.905,135.250 217.907,129.200 218.072 C 114.308 218.480,111.890 217.482,110.980 210.555 C 110.159 204.300,113.310 201.090,120.901 200.448 C 125.607 200.050,126.198 199.640,126.806 196.352 C 127.470 192.759,127.153 114.169,126.468 112.521 C 125.785 110.877,123.773 110.133,119.200 109.833 C 113.455 109.456,111.016 106.934,111.044 101.400 C 111.077 94.933,114.712 91.718,121.400 92.240 C 123.160 92.377,137.560 92.630,153.400 92.801 M160.382 109.584 C 155.288 110.080,155.400 109.582,155.400 131.800 L 155.400 149.400 164.000 149.377 C 181.541 149.329,187.170 145.460,188.370 132.626 C 189.866 116.628,179.098 107.763,160.382 109.584 " stroke="none" fill="#148c74" fill-rule="evenodd"></path><path id="path3" d="M118.900 92.687 C 119.505 92.778,120.495 92.778,121.100 92.687 C 121.705 92.595,121.210 92.520,120.000 92.520 C 118.790 92.520,118.295 92.595,118.900 92.687 M127.600 93.064 C 131.412 93.317,179.693 93.386,177.800 93.135 C 176.700 92.989,164.550 92.887,150.800 92.907 C 137.050 92.928,126.610 92.998,127.600 93.064 M113.938 94.502 C 113.353 94.996,112.678 95.793,112.438 96.274 C 111.692 97.761,111.959 97.873,112.833 96.439 C 113.289 95.690,114.054 94.751,114.531 94.352 C 115.009 93.953,115.310 93.622,115.200 93.615 C 115.090 93.609,114.522 94.008,113.938 94.502 M182.600 94.023 C 184.737 94.465,186.204 94.450,184.800 94.000 C 184.250 93.824,183.170 93.683,182.400 93.686 L 181.000 93.692 182.600 94.023 M187.000 94.800 C 187.440 94.989,188.160 95.144,188.600 95.144 L 189.400 95.144 188.600 94.800 C 188.160 94.611,187.440 94.456,187.000 94.456 L 186.200 94.456 187.000 94.800 M190.200 95.600 C 191.396 96.114,192.395 96.114,191.600 95.600 C 191.270 95.387,190.640 95.222,190.200 95.234 L 189.400 95.256 190.200 95.600 M199.963 99.419 C 206.334 102.839,211.454 107.621,214.364 112.869 C 216.073 115.951,216.598 116.359,215.155 113.484 C 212.391 107.976,206.316 102.187,199.910 98.957 C 195.994 96.982,196.031 97.308,199.963 99.419 M111.443 98.633 C 111.103 99.517,111.150 103.703,111.506 104.262 C 111.668 104.516,111.800 103.211,111.800 101.362 C 111.800 97.710,111.799 97.704,111.443 98.633 M112.014 105.520 C 111.997 106.144,114.712 109.021,115.024 108.710 C 115.144 108.590,114.738 108.096,114.121 107.612 C 113.504 107.128,112.781 106.343,112.514 105.866 C 112.247 105.390,112.022 105.234,112.014 105.520 M116.200 109.212 C 116.967 109.530,122.310 109.754,121.967 109.455 C 121.875 109.375,120.360 109.213,118.600 109.095 C 116.749 108.971,115.737 109.021,116.200 109.212 M158.720 109.128 C 158.346 109.278,161.120 109.401,164.886 109.401 C 168.681 109.402,171.034 109.278,170.166 109.124 C 168.160 108.768,159.614 108.771,158.720 109.128 M124.568 110.414 C 125.431 110.845,126.212 111.121,126.305 111.028 C 126.536 110.797,124.167 109.596,123.520 109.616 C 123.234 109.625,123.706 109.984,124.568 110.414 M156.029 110.654 C 155.573 111.234,155.207 111.999,155.216 112.354 C 155.224 112.709,155.478 112.433,155.779 111.740 C 156.081 111.047,156.659 110.288,157.064 110.052 C 157.469 109.817,157.588 109.619,157.329 109.612 C 157.070 109.605,156.485 110.074,156.029 110.654 M173.200 110.000 C 173.530 110.213,174.160 110.378,174.600 110.366 L 175.400 110.344 174.600 110.000 C 173.404 109.486,172.405 109.486,173.200 110.000 M178.033 111.349 C 178.445 111.717,180.800 112.800,180.800 112.621 C 180.800 112.390,178.582 111.200,178.153 111.200 C 177.996 111.200,177.942 111.267,178.033 111.349 M182.396 114.050 C 183.164 114.793,184.212 115.850,184.725 116.400 L 185.658 117.400 184.737 116.077 C 184.231 115.350,183.182 114.292,182.408 113.727 L 181.000 112.700 182.396 114.050 M127.400 155.200 C 127.400 177.924,127.525 195.815,127.677 194.958 C 128.039 192.923,128.039 117.477,127.677 115.442 C 127.525 114.585,127.400 132.476,127.400 155.200 M154.992 132.000 L 155.000 150.200 161.400 150.304 C 164.920 150.361,168.880 150.250,170.200 150.058 C 171.965 149.800,170.323 149.720,164.000 149.754 L 155.400 149.800 155.192 131.800 L 154.983 113.800 154.992 132.000 M216.834 118.400 C 216.846 118.730,217.011 119.360,217.200 119.800 L 217.544 120.600 217.566 119.800 C 217.578 119.360,217.413 118.730,217.200 118.400 C 216.855 117.867,216.815 117.867,216.834 118.400 M217.869 123.000 C 217.996 124.320,218.168 125.475,218.250 125.567 C 218.541 125.890,218.316 122.586,217.979 121.600 C 217.758 120.952,217.720 121.445,217.869 123.000 M188.056 122.800 C 188.056 123.130,188.211 123.760,188.400 124.200 C 188.617 124.704,188.744 124.778,188.744 124.400 C 188.744 124.070,188.589 123.440,188.400 123.000 C 188.183 122.496,188.056 122.422,188.056 122.800 M188.944 129.600 C 188.944 131.690,189.012 132.545,189.094 131.500 C 189.176 130.455,189.176 128.745,189.094 127.700 C 189.012 126.655,188.944 127.510,188.944 129.600 M217.870 130.957 C 217.711 132.253,217.661 133.394,217.760 133.493 C 218.026 133.759,218.503 130.218,218.319 129.347 C 218.232 128.936,218.030 129.660,217.870 130.957 M217.029 135.029 C 216.881 135.615,216.851 136.184,216.961 136.294 C 217.071 136.404,217.281 136.015,217.429 135.429 C 217.576 134.842,217.606 134.273,217.496 134.163 C 217.386 134.053,217.176 134.442,217.029 135.029 M188.222 135.822 C 188.072 136.625,188.038 137.372,188.148 137.482 C 188.258 137.592,188.472 137.025,188.622 136.222 C 188.773 135.419,188.806 134.673,188.696 134.563 C 188.586 134.453,188.373 135.019,188.222 135.822 M187.400 138.800 C 187.250 139.273,187.217 139.750,187.327 139.860 C 187.437 139.970,187.650 139.673,187.800 139.200 C 187.950 138.727,187.983 138.250,187.873 138.140 C 187.763 138.030,187.550 138.327,187.400 138.800 M212.656 144.248 C 211.831 145.472,211.344 146.358,211.573 146.217 C 212.148 145.861,214.515 142.381,214.316 142.183 C 214.228 142.094,213.480 143.024,212.656 144.248 M183.868 144.646 C 183.025 145.429,182.407 146.140,182.494 146.227 C 182.581 146.314,183.352 145.669,184.207 144.793 C 186.134 142.819,185.929 142.730,183.868 144.646 M179.400 147.644 C 178.080 148.291,177.450 148.702,178.000 148.559 C 179.188 148.248,182.000 146.866,182.000 146.592 C 182.000 146.352,182.222 146.262,179.400 147.644 M207.782 149.916 C 206.011 151.612,203.356 153.786,201.882 154.747 C 199.231 156.474,198.355 157.267,200.100 156.361 C 202.017 155.365,206.316 151.934,208.788 149.426 C 212.311 145.853,211.723 146.139,207.782 149.916 M174.400 149.200 C 173.596 149.457,173.557 149.523,174.200 149.532 C 174.640 149.538,175.360 149.389,175.800 149.200 C 176.819 148.762,175.768 148.762,174.400 149.200 M196.400 158.000 C 195.190 158.639,194.341 159.171,194.513 159.181 C 194.938 159.207,198.800 157.236,198.800 156.993 C 198.800 156.726,198.855 156.703,196.400 158.000 M191.200 160.220 C 191.200 160.525,192.391 162.800,192.551 162.800 C 192.622 162.800,192.483 162.170,192.242 161.400 C 191.875 160.226,191.200 159.462,191.200 160.220 M193.048 163.700 C 195.313 167.541,197.761 170.952,196.349 168.300 C 195.625 166.941,193.110 163.200,192.920 163.200 C 192.828 163.200,192.885 163.425,193.048 163.700 M154.982 166.502 C 154.876 166.779,154.839 173.304,154.900 181.002 L 155.011 195.000 155.105 180.723 L 155.200 166.446 156.900 166.293 L 158.600 166.140 156.887 166.070 C 155.826 166.027,155.102 166.191,154.982 166.502 M164.071 169.218 C 165.022 170.438,166.123 171.878,166.517 172.418 C 167.207 173.362,167.207 173.349,166.517 172.076 C 166.123 171.348,165.022 169.908,164.071 168.876 L 162.341 167.000 164.071 169.218 M199.867 174.406 C 200.259 175.070,200.998 176.105,201.510 176.706 C 202.021 177.308,201.775 176.765,200.963 175.500 C 199.424 173.103,198.628 172.307,199.867 174.406 M168.002 175.000 C 168.463 175.880,169.206 177.050,169.653 177.600 C 170.325 178.426,170.304 178.315,169.534 176.966 C 168.128 174.506,166.952 172.997,168.002 175.000 M170.924 179.800 C 171.262 180.460,171.838 181.360,172.204 181.800 C 172.570 182.240,172.465 181.880,171.970 181.000 C 170.880 179.058,170.064 178.122,170.924 179.800 M204.745 181.519 C 205.653 182.856,206.610 184.083,206.872 184.245 C 207.134 184.407,206.562 183.418,205.601 182.048 C 204.640 180.678,203.683 179.451,203.474 179.322 C 203.264 179.193,203.836 180.181,204.745 181.519 M173.251 183.700 C 173.975 185.059,176.490 188.800,176.680 188.800 C 176.874 188.800,176.781 188.636,174.693 185.300 C 173.172 182.870,172.285 181.885,173.251 183.700 M207.943 185.900 C 208.444 186.615,208.939 187.200,209.041 187.200 C 209.387 187.200,208.450 185.740,207.737 185.167 C 207.236 184.765,207.296 184.978,207.943 185.900 M215.200 187.486 C 228.828 187.743,280.713 187.776,280.086 187.528 C 279.709 187.379,263.650 187.283,244.400 187.317 C 225.150 187.350,212.010 187.426,215.200 187.486 M282.200 188.466 C 285.077 190.053,286.412 192.351,286.799 196.386 L 287.088 199.400 287.144 197.046 C 287.238 193.114,286.322 191.094,283.446 188.886 C 282.811 188.399,282.091 188.005,281.846 188.012 C 281.601 188.019,281.760 188.223,282.200 188.466 M181.943 196.918 C 182.640 197.931,183.422 198.890,183.680 199.050 C 183.939 199.209,183.535 198.484,182.784 197.437 C 181.005 194.960,180.294 194.521,181.943 196.918 M155.230 196.926 C 155.167 198.433,157.060 200.770,158.359 200.791 C 158.667 200.796,158.321 200.395,157.592 199.900 C 156.862 199.405,156.039 198.370,155.763 197.600 C 155.487 196.830,155.247 196.527,155.230 196.926 M126.464 198.619 C 126.208 199.180,125.415 199.893,124.700 200.204 C 123.887 200.557,123.674 200.775,124.131 200.784 C 124.912 200.801,127.200 198.748,127.200 198.031 C 127.200 197.337,126.961 197.528,126.464 198.619 M184.848 200.800 C 186.085 202.688,194.348 210.974,195.600 211.580 C 196.294 211.917,196.171 211.727,195.200 210.962 C 193.436 209.572,187.905 204.037,185.645 201.400 C 184.488 200.050,184.229 199.855,184.848 200.800 M117.000 201.192 C 116.527 201.390,117.427 201.438,119.200 201.309 C 120.850 201.188,122.275 201.024,122.367 200.945 C 122.714 200.643,117.763 200.872,117.000 201.192 M160.200 201.000 C 161.161 201.328,166.440 201.471,165.942 201.156 C 165.644 200.967,164.140 200.824,162.600 200.838 C 161.060 200.852,159.980 200.925,160.200 201.000 M114.101 202.500 C 111.898 204.040,110.263 209.996,111.457 212.131 C 111.670 212.510,111.800 211.499,111.800 209.472 C 111.800 205.721,112.528 204.020,114.781 202.501 C 115.516 202.006,115.954 201.600,115.754 201.600 C 115.553 201.600,114.809 202.005,114.101 202.500 M168.961 203.106 C 169.380 203.597,170.049 204.944,170.448 206.099 C 170.878 207.343,171.179 207.826,171.187 207.284 C 171.203 206.138,169.897 203.532,168.929 202.780 C 168.274 202.271,168.277 202.304,168.961 203.106 M234.969 203.906 C 234.276 204.379,234.181 240.746,234.872 240.992 C 235.589 241.247,265.186 241.452,264.934 241.200 C 264.824 241.090,258.044 240.910,249.867 240.800 L 235.000 240.600 235.000 222.400 L 235.000 204.200 245.400 203.990 L 255.800 203.780 245.600 203.696 C 239.990 203.650,235.206 203.744,234.969 203.906 M258.000 204.400 C 259.368 204.838,260.419 204.838,259.400 204.400 C 258.960 204.211,258.240 204.062,257.800 204.068 C 257.157 204.077,257.196 204.143,258.000 204.400 M263.294 207.488 C 264.012 208.585,264.666 209.429,264.746 209.363 C 264.960 209.185,263.289 206.571,262.590 205.991 C 262.259 205.717,262.576 206.391,263.294 207.488 M287.291 215.800 C 287.269 220.420,287.395 223.840,287.571 223.400 C 287.747 222.960,287.765 219.180,287.611 215.000 L 287.331 207.400 287.291 215.800 M197.600 212.764 C 198.150 213.214,198.780 213.583,199.000 213.585 C 199.428 213.588,198.705 213.034,197.400 212.360 C 196.869 212.085,196.936 212.221,197.600 212.764 M265.656 212.400 C 265.656 212.730,265.811 213.360,266.000 213.800 C 266.217 214.304,266.344 214.378,266.344 214.000 C 266.344 213.670,266.189 213.040,266.000 212.600 C 265.783 212.096,265.656 212.022,265.656 212.400 M112.000 213.462 C 112.000 214.542,115.526 217.646,116.680 217.582 C 116.856 217.573,116.313 217.202,115.473 216.759 C 114.632 216.315,113.580 215.333,113.133 214.576 C 112.352 213.252,112.000 212.906,112.000 213.462 M169.264 214.799 C 168.780 215.454,167.713 216.344,166.892 216.777 C 166.071 217.210,165.698 217.573,166.061 217.582 C 166.809 217.602,170.724 214.206,170.372 213.844 C 170.246 213.715,169.747 214.145,169.264 214.799 M266.456 215.800 C 266.456 216.240,266.611 216.960,266.800 217.400 L 267.144 218.200 267.144 217.400 C 267.144 216.960,266.989 216.240,266.800 215.800 L 266.456 215.000 266.456 215.800 M206.100 216.520 L 207.200 216.954 207.298 253.377 L 207.396 289.800 207.501 253.400 C 207.616 213.961,207.713 215.900,205.624 216.043 C 205.281 216.066,205.495 216.281,206.100 216.520 M134.900 217.499 C 138.365 217.566,144.035 217.566,147.500 217.499 C 150.965 217.433,148.130 217.378,141.200 217.378 C 134.270 217.378,131.435 217.433,134.900 217.499 M119.111 217.893 C 120.051 217.978,121.491 217.977,122.311 217.891 C 123.130 217.805,122.360 217.736,120.600 217.737 C 118.840 217.739,118.170 217.809,119.111 217.893 M159.900 217.893 C 160.835 217.977,162.365 217.977,163.300 217.893 C 164.235 217.809,163.470 217.740,161.600 217.740 C 159.730 217.740,158.965 217.809,159.900 217.893 M267.280 219.600 C 267.280 220.150,267.424 221.050,267.600 221.600 L 267.920 222.600 267.920 221.600 C 267.920 221.050,267.776 220.150,267.600 219.600 L 267.280 218.600 267.280 219.600 M286.832 224.699 C 286.779 225.527,284.074 228.272,282.783 228.807 C 282.118 229.082,281.662 229.395,281.769 229.502 C 282.562 230.295,287.510 225.800,287.063 224.694 C 286.906 224.305,286.856 224.306,286.832 224.699 M271.200 228.196 C 271.200 228.470,273.649 229.684,273.832 229.501 C 273.919 229.414,273.362 229.044,272.595 228.678 C 271.828 228.312,271.200 228.095,271.200 228.196 M275.115 230.072 C 275.492 230.221,276.700 230.344,277.800 230.344 C 278.900 230.344,280.108 230.221,280.485 230.072 C 280.862 229.922,279.654 229.800,277.800 229.800 C 275.946 229.800,274.738 229.922,275.115 230.072 M266.493 242.441 C 267.095 242.890,268.038 243.829,268.589 244.528 C 269.140 245.228,269.593 245.597,269.596 245.348 C 269.602 244.720,266.513 241.597,265.900 241.613 C 265.625 241.620,265.892 241.992,266.493 242.441 M269.844 247.000 C 270.173 248.471,270.402 248.790,270.394 247.767 C 270.391 247.345,270.205 246.730,269.982 246.400 C 269.685 245.962,269.648 246.124,269.844 247.000 M270.046 251.667 C 270.021 252.034,269.896 252.664,269.770 253.067 C 269.552 253.762,269.563 253.763,269.997 253.087 C 270.248 252.696,270.373 252.066,270.273 251.687 C 270.111 251.068,270.088 251.066,270.046 251.667 M268.632 255.007 C 268.261 255.574,267.381 256.389,266.678 256.818 C 265.975 257.246,265.632 257.598,265.915 257.599 C 266.580 257.600,269.873 254.540,269.552 254.218 C 269.418 254.085,269.004 254.439,268.632 255.007 M249.200 257.992 L 234.600 258.200 234.495 273.126 C 234.437 281.335,234.527 288.874,234.695 289.878 C 234.863 290.882,235.000 284.255,235.000 275.152 L 235.000 258.600 249.867 258.400 C 258.044 258.290,264.869 258.065,265.034 257.900 C 265.199 257.735,264.988 257.642,264.567 257.692 C 264.145 257.743,257.230 257.878,249.200 257.992 M281.883 271.539 C 281.489 271.695,282.532 271.822,284.200 271.822 C 285.868 271.822,286.911 271.695,286.517 271.539 C 286.123 271.384,285.080 271.256,284.200 271.256 C 283.320 271.256,282.277 271.384,281.883 271.539 M289.261 273.006 C 290.284 273.539,291.679 274.652,292.361 275.479 C 293.789 277.211,294.038 276.964,292.700 275.143 C 291.907 274.064,288.562 271.968,287.713 272.019 C 287.541 272.029,288.237 272.473,289.261 273.006 M276.975 274.099 L 275.800 275.397 277.000 274.405 C 277.660 273.859,278.371 273.274,278.580 273.106 C 278.816 272.916,278.806 272.800,278.555 272.800 C 278.332 272.800,277.621 273.384,276.975 274.099 M274.986 276.827 C 274.637 277.502,274.415 278.246,274.494 278.481 C 274.572 278.716,274.928 278.164,275.286 277.254 C 276.050 275.309,275.889 275.081,274.986 276.827 M293.628 277.476 C 293.718 278.515,294.344 279.396,294.372 278.524 C 294.387 278.042,294.220 277.536,294.000 277.400 C 293.780 277.264,293.613 277.298,293.628 277.476 M293.818 283.018 C 293.665 284.039,293.630 284.963,293.740 285.073 C 293.850 285.183,294.065 284.439,294.218 283.418 C 294.371 282.398,294.406 281.473,294.296 281.363 C 294.186 281.253,293.971 281.998,293.818 283.018 M293.018 288.218 C 292.865 289.239,292.830 290.163,292.940 290.273 C 293.050 290.383,293.265 289.639,293.418 288.618 C 293.571 287.598,293.606 286.673,293.496 286.563 C 293.386 286.453,293.171 287.198,293.018 288.218 M269.246 291.624 C 268.748 292.297,267.769 293.196,267.070 293.622 C 266.372 294.048,266.019 294.398,266.286 294.399 C 266.897 294.400,269.497 292.141,270.029 291.145 C 270.629 290.024,270.263 290.248,269.246 291.624 M206.629 291.829 C 206.481 292.415,206.451 292.984,206.561 293.094 C 206.671 293.204,206.881 292.815,207.029 292.229 C 207.176 291.642,207.206 291.073,207.096 290.963 C 206.986 290.853,206.776 291.242,206.629 291.829 M292.218 293.018 C 292.065 294.039,292.030 294.963,292.140 295.073 C 292.250 295.183,292.465 294.439,292.618 293.418 C 292.771 292.398,292.806 291.473,292.696 291.363 C 292.586 291.253,292.371 291.998,292.218 293.018 M235.212 292.906 C 235.201 293.569,237.324 295.197,238.200 295.197 C 238.420 295.197,238.031 294.850,237.335 294.426 C 236.639 294.002,235.880 293.327,235.647 292.927 C 235.251 292.246,235.224 292.244,235.212 292.906 M263.200 294.800 L 262.200 295.120 263.200 295.132 C 263.750 295.138,264.560 294.989,265.000 294.800 L 265.800 294.456 265.000 294.468 C 264.560 294.474,263.750 294.624,263.200 294.800 M196.600 295.588 C 196.137 295.779,197.149 295.829,199.000 295.705 C 200.760 295.587,202.275 295.425,202.367 295.345 C 202.710 295.046,197.367 295.270,196.600 295.588 M244.924 295.499 C 247.962 295.567,252.822 295.567,255.724 295.499 C 258.626 295.431,256.140 295.375,250.200 295.375 C 244.260 295.375,241.886 295.431,244.924 295.499 M193.491 297.229 C 192.671 297.905,192.004 298.670,192.009 298.929 C 192.014 299.188,192.335 298.988,192.722 298.485 C 193.109 297.982,193.960 297.218,194.613 296.788 C 195.266 296.357,195.616 296.004,195.391 296.003 C 195.166 296.001,194.311 296.553,193.491 297.229 M291.418 298.218 C 291.265 299.239,291.230 300.163,291.340 300.273 C 291.450 300.383,291.665 299.639,291.818 298.618 C 291.971 297.598,292.006 296.673,291.896 296.563 C 291.786 296.453,291.571 297.198,291.418 298.218 M191.449 300.215 C 191.312 300.573,191.215 301.166,191.234 301.533 C 191.253 301.900,191.427 301.669,191.621 301.020 C 191.998 299.758,191.865 299.133,191.449 300.215 M290.622 303.022 C 290.472 303.825,290.438 304.572,290.548 304.682 C 290.658 304.792,290.872 304.225,291.022 303.422 C 291.173 302.619,291.206 301.873,291.096 301.763 C 290.986 301.653,290.773 302.219,290.622 303.022 M191.206 305.833 C 191.209 306.255,191.395 306.870,191.618 307.200 C 191.915 307.638,191.952 307.476,191.756 306.600 C 191.427 305.129,191.198 304.810,191.206 305.833 M288.926 308.248 C 288.790 308.604,287.860 309.414,286.861 310.048 C 285.861 310.681,285.232 311.200,285.463 311.200 C 286.140 311.200,288.468 309.476,289.108 308.500 C 289.432 308.005,289.580 307.600,289.436 307.600 C 289.292 307.600,289.063 307.891,288.926 308.248 M192.000 308.242 C 192.000 308.462,192.675 309.263,193.499 310.022 L 194.998 311.400 193.802 310.000 C 193.144 309.230,192.470 308.429,192.303 308.220 C 192.115 307.984,192.000 307.992,192.000 308.242 M244.800 311.600 L 206.600 311.806 244.800 311.863 C 265.810 311.895,283.450 311.776,284.000 311.600 L 285.000 311.280 284.000 311.337 C 283.450 311.368,265.810 311.487,244.800 311.600 M198.291 312.289 C 199.001 312.377,200.261 312.379,201.091 312.292 C 201.921 312.205,201.340 312.133,199.800 312.131 C 198.260 312.129,197.581 312.200,198.291 312.289 " stroke="none" fill="#81c1b4" fill-rule="evenodd"></path><path id="path4" d="M117.200 92.402 C 116.600 92.595,117.240 92.637,118.800 92.506 C 120.230 92.386,121.475 92.223,121.567 92.144 C 121.889 91.865,118.188 92.084,117.200 92.402 M125.320 92.698 C 127.255 92.772,130.315 92.771,132.120 92.697 C 133.924 92.623,132.340 92.563,128.600 92.564 C 124.860 92.564,123.384 92.625,125.320 92.698 M114.293 93.814 C 113.472 94.372,112.800 94.915,112.800 95.020 C 112.800 95.125,113.520 94.735,114.400 94.153 C 115.797 93.228,116.270 92.800,115.893 92.800 C 115.834 92.800,115.114 93.256,114.293 93.814 M178.200 93.218 C 179.300 93.390,180.830 93.522,181.600 93.512 C 182.733 93.497,182.618 93.434,181.000 93.182 C 179.900 93.010,178.370 92.878,177.600 92.888 C 176.467 92.903,176.582 92.966,178.200 93.218 M188.600 94.800 C 189.040 94.989,189.670 95.144,190.000 95.144 C 190.378 95.144,190.304 95.017,189.800 94.800 C 189.360 94.611,188.730 94.456,188.400 94.456 C 188.022 94.456,188.096 94.583,188.600 94.800 M195.158 96.837 C 196.125 97.266,196.988 97.545,197.075 97.458 C 197.248 97.286,194.165 95.982,193.692 96.028 C 193.531 96.044,194.191 96.408,195.158 96.837 M110.901 101.400 C 110.905 102.280,110.987 102.593,111.083 102.095 C 111.179 101.598,111.175 100.878,111.075 100.495 C 110.975 100.113,110.896 100.520,110.901 101.400 M204.800 101.725 C 204.800 101.824,205.461 102.409,206.268 103.025 C 207.076 103.641,207.611 103.941,207.456 103.691 C 207.140 103.179,204.800 101.447,204.800 101.725 M111.389 104.533 C 111.505 104.936,111.600 105.417,111.600 105.602 C 111.600 106.149,113.631 108.400,114.125 108.400 C 114.374 108.400,114.161 108.108,113.652 107.751 C 113.143 107.395,112.378 106.360,111.952 105.451 C 111.527 104.543,111.273 104.130,111.389 104.533 M209.373 105.800 C 210.143 106.570,210.905 107.200,211.065 107.200 C 211.226 107.200,210.746 106.570,210.000 105.800 C 209.254 105.030,208.492 104.400,208.308 104.400 C 208.124 104.400,208.603 105.030,209.373 105.800 M212.175 108.932 C 212.791 109.739,213.376 110.400,213.475 110.400 C 213.753 110.400,212.021 108.060,211.509 107.744 C 211.259 107.589,211.559 108.124,212.175 108.932 M160.305 109.483 C 160.802 109.579,161.522 109.575,161.905 109.475 C 162.287 109.375,161.880 109.296,161.000 109.301 C 160.120 109.305,159.807 109.387,160.305 109.483 M165.100 109.489 C 165.815 109.578,166.985 109.578,167.700 109.489 C 168.415 109.401,167.830 109.328,166.400 109.328 C 164.970 109.328,164.385 109.401,165.100 109.489 M118.400 109.823 C 119.830 110.134,123.961 110.222,123.504 109.932 C 123.227 109.756,121.830 109.630,120.400 109.653 C 118.970 109.675,118.070 109.752,118.400 109.823 M156.744 110.424 L 155.800 111.247 157.000 110.545 C 158.579 109.620,158.603 109.600,158.111 109.600 C 157.879 109.600,157.264 109.971,156.744 110.424 M170.433 109.743 C 170.525 109.822,171.320 109.997,172.200 110.132 C 173.290 110.299,173.609 110.255,173.200 109.995 C 172.653 109.646,170.045 109.409,170.433 109.743 M174.433 110.544 C 174.525 110.623,175.140 110.808,175.800 110.956 C 176.676 111.152,176.838 111.115,176.400 110.818 C 175.860 110.453,174.032 110.198,174.433 110.544 M179.225 112.388 C 180.448 113.020,181.685 113.821,181.974 114.168 C 182.262 114.516,182.670 114.800,182.880 114.800 C 183.501 114.800,181.136 112.979,179.316 112.055 C 178.390 111.585,177.490 111.209,177.316 111.219 C 177.142 111.230,178.001 111.756,179.225 112.388 M126.658 113.600 C 126.975 115.325,127.202 115.651,127.194 114.367 C 127.191 113.835,127.011 113.130,126.794 112.800 C 126.518 112.378,126.477 112.615,126.658 113.600 M155.314 114.600 C 155.317 115.700,155.395 116.103,155.487 115.495 C 155.579 114.886,155.577 113.986,155.482 113.495 C 155.387 113.003,155.311 113.500,155.314 114.600 M215.515 114.305 C 216.501 116.513,217.087 117.090,216.221 115.000 C 215.857 114.120,215.377 113.220,215.156 113.000 C 214.935 112.780,215.096 113.367,215.515 114.305 M184.064 116.300 C 184.621 116.905,185.375 117.845,185.739 118.389 C 186.102 118.933,186.400 119.221,186.400 119.028 C 186.400 118.495,183.852 115.226,183.425 115.212 C 183.219 115.206,183.506 115.695,184.064 116.300 M127.392 155.200 C 127.392 176.210,127.441 184.805,127.500 174.300 C 127.559 163.795,127.559 146.605,127.500 136.100 C 127.441 125.595,127.392 134.190,127.392 155.200 M188.293 125.800 C 188.413 127.120,188.576 128.275,188.655 128.367 C 188.951 128.707,188.731 124.970,188.410 124.200 C 188.208 123.717,188.162 124.351,188.293 125.800 M218.544 127.200 C 218.544 129.290,218.612 130.145,218.694 129.100 C 218.776 128.055,218.776 126.345,218.694 125.300 C 218.612 124.255,218.544 125.110,218.544 127.200 M188.524 132.200 C 188.526 133.520,188.601 134.012,188.690 133.293 C 188.779 132.574,188.777 131.494,188.686 130.893 C 188.595 130.292,188.522 130.880,188.524 132.200 M217.850 133.250 C 217.517 134.917,217.840 135.240,218.200 133.600 C 218.352 132.909,218.393 132.259,218.291 132.158 C 218.189 132.056,217.991 132.547,217.850 133.250 M215.029 140.861 C 214.683 141.555,214.400 142.225,214.400 142.350 C 214.400 142.697,215.433 141.094,215.721 140.300 C 216.136 139.155,215.706 139.504,215.029 140.861 M186.000 141.477 C 186.000 141.703,185.243 142.768,184.319 143.844 C 183.394 144.920,183.142 145.350,183.758 144.800 C 185.215 143.500,186.553 141.620,186.244 141.310 C 186.110 141.176,186.000 141.251,186.000 141.477 M209.024 149.118 C 207.057 151.253,206.322 152.190,207.391 151.200 C 209.315 149.419,210.716 147.918,212.129 146.125 C 213.542 144.333,212.562 145.276,209.024 149.118 M176.400 148.400 C 175.576 148.664,175.541 148.726,176.200 148.754 C 176.640 148.773,177.270 148.613,177.600 148.400 C 178.301 147.947,177.814 147.947,176.400 148.400 M172.200 149.200 L 170.600 149.486 172.000 149.503 C 172.770 149.513,173.850 149.376,174.400 149.200 C 175.685 148.788,174.499 148.788,172.200 149.200 M155.550 149.712 C 155.723 149.883,158.369 149.973,161.432 149.910 L 167.000 149.797 161.119 149.599 C 157.884 149.489,155.378 149.540,155.550 149.712 M203.600 154.049 C 202.206 155.271,202.205 155.272,203.488 154.419 C 204.196 153.948,204.882 153.391,205.012 153.181 C 205.397 152.557,205.077 152.754,203.600 154.049 M199.500 156.629 C 198.005 157.440,198.096 157.778,199.600 157.000 C 200.260 156.659,200.800 156.294,200.800 156.190 C 200.800 155.932,200.757 155.947,199.500 156.629 M196.400 158.400 C 195.630 158.822,195.144 159.174,195.320 159.183 C 195.744 159.205,198.000 158.032,198.000 157.790 C 198.000 157.528,197.977 157.537,196.400 158.400 M192.749 162.600 C 192.965 163.040,193.434 163.760,193.793 164.200 L 194.444 165.000 194.051 164.200 C 193.835 163.760,193.366 163.040,193.007 162.600 L 192.356 161.800 192.749 162.600 M155.400 166.599 C 156.309 166.907,161.348 167.082,160.600 166.780 C 160.160 166.602,158.720 166.458,157.400 166.460 C 156.080 166.462,155.180 166.524,155.400 166.599 M161.633 167.300 C 161.725 167.355,162.340 167.850,163.000 168.400 L 164.200 169.400 163.230 168.300 C 162.697 167.695,162.082 167.200,161.864 167.200 C 161.645 167.200,161.542 167.245,161.633 167.300 M196.406 168.400 C 197.157 169.860,204.784 181.143,205.189 181.393 C 205.492 181.580,196.611 168.114,196.093 167.600 C 195.982 167.490,196.123 167.850,196.406 168.400 M165.844 172.200 C 166.855 173.740,167.781 175.090,167.903 175.200 C 168.527 175.762,166.084 171.798,165.124 170.690 C 164.509 169.980,164.833 170.660,165.844 172.200 M169.630 178.200 C 170.124 179.080,170.700 179.980,170.910 180.200 C 171.509 180.828,170.139 178.294,169.396 177.400 C 169.030 176.960,169.135 177.320,169.630 178.200 M172.030 182.200 C 172.524 183.080,173.100 183.980,173.310 184.200 C 173.909 184.828,172.539 182.294,171.796 181.400 C 171.430 180.960,171.535 181.320,172.030 182.200 M206.766 183.700 C 209.443 187.477,209.024 187.249,213.014 187.099 L 216.600 186.965 213.000 186.878 L 209.400 186.792 207.654 184.396 C 206.694 183.078,205.831 182.000,205.735 182.000 C 205.640 182.000,206.104 182.765,206.766 183.700 M175.414 187.600 C 176.281 189.169,182.866 198.740,183.807 199.800 L 184.873 201.000 184.021 199.800 C 183.553 199.140,181.533 196.170,179.534 193.200 C 176.246 188.319,174.496 185.939,175.414 187.600 M280.200 187.600 C 280.640 187.789,281.270 187.944,281.600 187.944 C 281.978 187.944,281.904 187.817,281.400 187.600 C 280.960 187.411,280.330 187.256,280.000 187.256 C 279.622 187.256,279.696 187.383,280.200 187.600 M283.446 188.886 C 284.081 189.374,284.732 189.959,284.894 190.186 C 285.094 190.469,285.190 190.465,285.194 190.175 C 285.197 189.942,284.667 189.357,284.016 188.875 C 282.464 187.727,281.950 187.737,283.446 188.886 M155.228 194.233 C 155.244 195.315,155.404 196.560,155.585 197.000 C 155.778 197.470,155.826 196.727,155.702 195.200 C 155.448 192.055,155.189 191.529,155.228 194.233 M287.363 201.200 C 287.363 204.830,287.423 206.315,287.498 204.500 C 287.572 202.685,287.572 199.715,287.498 197.900 C 287.423 196.085,287.363 197.570,287.363 201.200 M126.860 196.067 C 126.827 196.654,126.696 197.464,126.570 197.867 C 126.352 198.560,126.365 198.561,126.795 197.890 C 127.046 197.499,127.177 196.689,127.086 196.090 L 126.920 195.000 126.860 196.067 M158.508 200.475 C 158.779 200.647,160.260 200.770,161.800 200.747 C 165.049 200.701,164.567 200.505,160.708 200.304 C 159.228 200.226,158.238 200.304,158.508 200.475 M119.900 200.689 C 120.615 200.778,121.785 200.778,122.500 200.689 C 123.215 200.601,122.630 200.528,121.200 200.528 C 119.770 200.528,119.185 200.601,119.900 200.689 M113.656 202.413 C 112.416 203.446,112.975 203.435,114.291 202.400 C 114.850 201.960,115.149 201.606,114.954 201.613 C 114.759 201.621,114.175 201.981,113.656 202.413 M167.600 201.711 C 167.600 201.787,168.185 202.278,168.900 202.801 C 169.704 203.390,169.984 203.487,169.633 203.055 C 169.100 202.399,167.600 201.407,167.600 201.711 M186.800 203.442 C 186.800 203.649,188.375 205.344,190.300 207.209 L 193.800 210.600 190.400 207.012 C 188.530 205.039,186.955 203.344,186.900 203.245 C 186.845 203.147,186.800 203.236,186.800 203.442 M234.956 204.571 C 234.835 204.885,234.816 205.560,234.914 206.071 C 235.049 206.782,235.104 206.696,235.146 205.706 L 235.200 204.413 246.300 204.300 L 257.400 204.187 246.287 204.093 C 236.969 204.015,235.140 204.092,234.956 204.571 M260.674 205.578 C 261.927 206.147,262.656 206.874,263.570 208.469 C 264.243 209.641,264.794 210.410,264.796 210.178 C 264.811 208.507,261.150 204.781,259.520 204.809 C 259.234 204.814,259.753 205.160,260.674 205.578 M171.331 209.400 C 171.333 210.940,171.405 211.521,171.492 210.691 C 171.579 209.861,171.577 208.601,171.489 207.891 C 171.400 207.181,171.329 207.860,171.331 209.400 M110.909 209.200 C 110.909 210.190,110.987 210.595,111.082 210.100 C 111.178 209.605,111.178 208.795,111.082 208.300 C 110.987 207.805,110.909 208.210,110.909 209.200 M287.759 214.000 C 287.759 217.190,287.821 218.495,287.897 216.900 C 287.973 215.305,287.973 212.695,287.897 211.100 C 287.821 209.505,287.759 210.810,287.759 214.000 M194.600 211.104 C 195.040 211.530,196.120 212.295,197.000 212.804 C 199.091 214.012,198.349 213.285,195.800 211.628 C 194.700 210.913,194.160 210.677,194.600 211.104 M234.887 226.076 C 234.839 233.928,234.935 240.436,235.100 240.539 C 235.373 240.708,235.366 229.411,235.085 216.800 C 235.024 214.050,234.935 218.224,234.887 226.076 M265.668 213.600 C 265.688 214.639,266.318 216.346,266.332 215.400 C 266.338 214.960,266.189 214.240,266.000 213.800 C 265.789 213.310,265.661 213.232,265.668 213.600 M168.400 216.074 C 167.410 216.976,166.960 217.524,167.400 217.292 C 168.152 216.894,170.752 214.381,170.375 214.416 C 170.279 214.425,169.390 215.171,168.400 216.074 M266.662 218.200 C 266.796 219.080,266.972 219.875,267.053 219.967 C 267.356 220.310,267.129 218.168,266.781 217.400 C 266.529 216.842,266.493 217.085,266.662 218.200 M117.000 218.028 C 117.440 218.202,119.060 218.342,120.600 218.340 C 124.146 218.336,123.558 218.114,119.400 217.888 C 117.627 217.791,116.557 217.854,117.000 218.028 M127.300 217.898 C 129.445 217.970,132.955 217.970,135.100 217.898 C 137.245 217.826,135.490 217.767,131.200 217.767 C 126.910 217.767,125.155 217.826,127.300 217.898 M146.122 217.899 C 148.499 217.970,152.279 217.969,154.522 217.898 C 156.765 217.827,154.820 217.769,150.200 217.769 C 145.580 217.770,143.745 217.828,146.122 217.899 M162.000 218.000 L 159.000 218.256 161.800 218.300 C 163.340 218.324,164.960 218.189,165.400 218.000 C 165.843 217.809,165.933 217.676,165.600 217.700 C 165.270 217.724,163.650 217.859,162.000 218.000 M267.280 221.400 C 267.280 221.840,267.424 222.650,267.600 223.200 C 267.854 223.992,267.920 224.033,267.920 223.400 C 267.920 222.960,267.776 222.150,267.600 221.600 C 267.346 220.808,267.280 220.767,267.280 221.400 M287.429 223.829 C 287.281 224.415,287.238 224.972,287.332 225.066 C 287.427 225.160,287.624 224.758,287.771 224.171 C 287.919 223.585,287.962 223.028,287.868 222.934 C 287.773 222.840,287.576 223.242,287.429 223.829 M268.004 224.520 C 267.987 225.903,271.604 229.608,272.960 229.596 C 273.202 229.594,272.641 229.138,271.714 228.582 C 270.787 228.026,269.574 226.813,269.018 225.886 C 268.462 224.959,268.006 224.344,268.004 224.520 M268.400 243.600 C 268.870 244.260,269.344 244.800,269.454 244.800 C 269.564 244.800,269.270 244.260,268.800 243.600 C 268.330 242.940,267.856 242.400,267.746 242.400 C 267.636 242.400,267.930 242.940,268.400 243.600 M270.528 250.000 C 270.528 251.430,270.601 252.015,270.689 251.300 C 270.778 250.585,270.778 249.415,270.689 248.700 C 270.601 247.985,270.528 248.570,270.528 250.000 M268.191 256.009 C 267.554 256.674,266.350 257.423,265.514 257.673 C 264.678 257.923,264.074 258.207,264.171 258.304 C 264.606 258.740,267.183 257.455,268.407 256.192 C 269.150 255.427,269.665 254.800,269.553 254.800 C 269.441 254.800,268.828 255.344,268.191 256.009 M234.982 258.902 C 234.877 259.177,234.837 266.062,234.895 274.202 L 235.001 289.000 235.200 273.700 C 235.310 265.285,235.349 258.400,235.287 258.400 C 235.226 258.400,235.088 258.626,234.982 258.902 M280.600 271.600 C 280.096 271.817,280.022 271.944,280.400 271.944 C 280.730 271.944,281.360 271.789,281.800 271.600 C 282.304 271.383,282.378 271.256,282.000 271.256 C 281.670 271.256,281.040 271.411,280.600 271.600 M286.400 271.478 C 286.730 271.597,287.765 272.022,288.700 272.424 C 289.635 272.826,290.400 273.066,290.400 272.958 C 290.400 272.647,287.066 271.215,286.400 271.240 C 285.867 271.261,285.867 271.287,286.400 271.478 M276.441 274.214 C 275.759 274.992,275.200 275.748,275.200 275.894 C 275.200 276.040,275.336 275.989,275.503 275.780 C 275.670 275.571,276.333 274.815,276.978 274.100 C 277.622 273.385,278.045 272.800,277.916 272.800 C 277.788 272.800,277.124 273.436,276.441 274.214 M292.400 274.800 C 292.870 275.460,293.344 276.000,293.454 276.000 C 293.564 276.000,293.270 275.460,292.800 274.800 C 292.330 274.140,291.856 273.600,291.746 273.600 C 291.636 273.600,291.930 274.140,292.400 274.800 M294.520 280.400 C 294.520 281.610,294.595 282.105,294.687 281.500 C 294.778 280.895,294.778 279.905,294.687 279.300 C 294.595 278.695,294.520 279.190,294.520 280.400 M293.869 284.756 C 293.721 285.495,293.620 286.483,293.644 286.950 C 293.668 287.418,293.847 286.990,294.042 286.000 C 294.237 285.010,294.338 284.023,294.267 283.806 C 294.196 283.590,294.017 284.017,293.869 284.756 M206.864 288.600 C 206.823 289.480,206.696 290.650,206.583 291.200 L 206.377 292.200 206.808 291.214 C 207.044 290.672,207.171 289.502,207.089 288.614 L 206.940 287.000 206.864 288.600 M270.000 289.944 C 270.000 290.206,269.152 291.271,268.115 292.311 C 267.079 293.350,266.669 293.911,267.205 293.558 C 268.499 292.705,270.608 290.074,270.268 289.735 C 270.121 289.587,270.000 289.681,270.000 289.944 M235.293 291.200 C 235.293 291.970,235.375 292.285,235.476 291.900 C 235.576 291.515,235.576 290.885,235.476 290.500 C 235.375 290.115,235.293 290.430,235.293 291.200 M292.269 294.756 C 292.121 295.495,292.020 296.483,292.044 296.950 C 292.068 297.418,292.247 296.990,292.442 296.000 C 292.637 295.010,292.738 294.023,292.667 293.806 C 292.596 293.590,292.417 294.017,292.269 294.756 M201.000 294.800 L 198.200 295.059 200.800 295.123 C 202.230 295.159,203.670 295.013,204.000 294.800 C 204.330 294.587,204.420 294.441,204.200 294.477 C 203.980 294.512,202.540 294.658,201.000 294.800 M238.137 294.894 C 238.392 295.056,244.000 295.154,250.600 295.112 C 257.200 295.071,261.160 294.985,259.400 294.922 C 251.679 294.645,237.714 294.626,238.137 294.894 M193.287 297.100 C 192.330 298.035,192.314 298.081,193.181 297.406 C 194.888 296.076,194.969 296.000,194.686 296.000 C 194.536 296.000,193.906 296.495,193.287 297.100 M291.469 299.956 C 291.321 300.695,291.220 301.683,291.244 302.150 C 291.268 302.618,291.447 302.190,291.642 301.200 C 291.837 300.210,291.938 299.223,291.867 299.006 C 291.796 298.790,291.617 299.217,291.469 299.956 M190.931 303.800 C 190.933 305.340,191.005 305.921,191.092 305.091 C 191.179 304.261,191.177 303.001,191.089 302.291 C 191.000 301.581,190.929 302.260,190.931 303.800 M290.629 304.629 C 290.481 305.215,290.438 305.772,290.532 305.866 C 290.627 305.960,290.824 305.558,290.971 304.971 C 291.119 304.385,291.162 303.828,291.068 303.734 C 290.973 303.640,290.776 304.042,290.629 304.629 M289.809 307.172 C 289.664 307.630,289.068 308.588,288.486 309.302 C 287.573 310.422,287.555 310.491,288.355 309.801 C 289.357 308.937,290.580 306.846,290.266 306.533 C 290.160 306.427,289.954 306.714,289.809 307.172 M193.001 309.934 C 193.660 310.668,194.560 311.455,195.000 311.683 C 195.440 311.911,195.620 311.940,195.400 311.748 C 195.180 311.555,194.280 310.768,193.401 309.999 L 191.802 308.600 193.001 309.934 M196.600 312.420 C 197.040 312.598,198.480 312.742,199.800 312.740 C 202.816 312.736,202.258 312.522,198.600 312.281 C 196.973 312.174,196.135 312.232,196.600 312.420 M206.321 312.299 C 208.588 312.370,212.188 312.370,214.321 312.298 C 216.455 312.226,214.600 312.168,210.200 312.168 C 205.800 312.168,204.055 312.227,206.321 312.299 " stroke="none" fill="#6ab4a5" fill-rule="evenodd"></path></g></svg>